<svg width="109" height="109" viewBox="0 0 109 109" fill="none" xmlns="http://www.w3.org/2000/svg">
<path fill-rule="evenodd" clip-rule="evenodd" d="M109 55V0L54 0.00223336C24.1307 0.270661 -2.3958e-06 24.5673 -7.62939e-06 54.5C-1.33591e-05 84.5995 24.4005 109 54.5 109C84.4327 109 108.729 84.8693 108.998 55H109ZM73 27C76.866 27 80 23.866 80 20C80 16.134 76.866 13 73 13C69.134 13 66 16.134 66 20C66 23.866 69.134 27 73 27ZM49.4503 13.8005C28.6353 16.2947 12.5 34.0131 12.5 55.5C12.5 78.696 31.304 97.5 54.5 97.5C77.696 97.5 96.5 78.696 96.5 55.5C96.5 55.3339 96.499 55.1679 96.4971 55.0022L96.4949 55L96.4926 54.9977C96.4975 54.8324 96.5 54.6665 96.5 54.5C96.5 45.3873 89.1127 38 80 38C70.8873 38 63.5 45.3873 63.5 54.5C63.5 63.6127 70.8873 71 80 71C81.5369 71 82.7487 72.6374 81.8901 73.9121C75.9631 82.7118 65.9075 88.5 54.5 88.5C36.2746 88.5 21.5 73.7254 21.5 55.5C21.5 38.9482 33.6858 25.2425 49.5753 22.865C52.0113 22.5005 54 20.5261 54 18.063C54 15.5532 51.9422 13.5019 49.4503 13.8005ZM96 20.5C96 24.366 92.866 27.5 89 27.5C85.134 27.5 82 24.366 82 20.5C82 16.634 85.134 13.5 89 13.5C92.866 13.5 96 16.634 96 20.5Z" fill="black"/>
</svg>
