<svg width="118" height="131" viewBox="0 0 118 131" fill="none" xmlns="http://www.w3.org/2000/svg">
<path d="M75.827 125.503C71.2575 118.514 72.0329 108.901 72.0329 100.975C72.0329 96.2158 72.6275 90.9723 73.9108 86.374C75.4415 80.889 77.2759 75.1536 80.6367 70.5077C84.5657 65.0764 88.1737 60.5535 95.2191 59.547C100.704 58.7634 105.425 62.2458 108.92 66.1771C112.467 70.1677 112.733 76.1332 112.733 81.181C112.733 82.8737 112.733 84.5663 112.733 86.259C112.733 88.1889 112.043 90.0139 112.043 91.8735C112.043 93.3031 110.843 95.5863 110.319 97.0281C109.787 98.4892 109.273 100.597 108.326 101.78C107.655 102.619 107.633 104.059 106.697 104.808C106.105 105.282 105.163 107.164 104.723 107.912C102.529 111.642 98.3702 114.189 95.4107 117.148C94.6555 117.903 93.4406 118.231 92.728 119.122C91.8805 120.181 89.6008 121.249 89.2788 119.639" stroke="black" stroke-width="3" stroke-linecap="round"/>
<path d="M85.8296 76.8696C86.581 76.0243 85.9851 74.8296 85.6572 73.9186C84.486 70.6654 82.9603 67.4362 80.9624 64.6058C73.6074 54.1862 61.3072 46.366 48.7318 44.179C39.8761 42.6389 31.4388 42.2979 23.4186 46.8809C20.1396 48.7546 16.9482 52.2335 14.5849 55.1397C12.0603 58.2443 8.86094 61.7505 7.34162 65.4873C6.18276 68.3374 5.33652 71.8568 5.13797 74.9342C5.0585 76.1661 4.79536 78.1259 5.31043 79.3032C7.65595 84.6644 14.6619 86.6447 19.682 88.1752C25.0953 89.8256 31.1793 89.3222 35.6441 85.8374C40.2931 82.2089 42.2734 77.2123 45.9916 72.9222C47.4405 71.2504 48.9571 69.1517 50.0348 67.2119C50.7625 65.902 52.1458 65.9198 53.2349 65.3148C54.4109 64.6614 56.0417 65.3652 57.2014 65.4873C59.5884 65.7385 62.3028 67.044 64.6172 67.7484C67.0458 68.4876 69.1054 69.8871 71.3431 71.006C73.964 72.3164 76.7741 73.0821 79.0846 74.9725C79.4987 75.3113 81.3568 77.5398 81.6906 77.5594C83.3363 77.6562 84.6584 77.375 86.1745 76.8696" stroke="black" stroke-width="3" stroke-linecap="round"/>
<path d="M97.5568 65.1424C95.8985 64.9351 95.1424 59.116 95.1424 57.8225C95.1424 53.7626 94.55 50.0893 93.7627 46.1528C92.9439 42.0587 89.609 39.4453 87.8991 35.8244C86.6511 33.1816 87.6385 28.3327 88.7806 25.8409C91.604 19.6807 94.4573 13.5532 97.6335 7.54111C99.654 3.71654 101.52 4.99202 104.8 6.33389C106.461 7.01353 108.379 7.64138 109.897 8.57586C110.898 9.19174 110.668 9.36243 111.085 10.3004C111.707 11.6985 112.388 14.627 112.388 16.1641C112.388 17.7351 112.954 19.3164 112.714 20.9929C112.555 22.107 111.485 23.2857 111.085 24.3654C110.723 25.3428 110.318 26.7762 109.629 27.5463C106.027 31.5719 103.958 36.165 102.807 41.3431C102.115 44.4566 103.084 47.8667 102.213 51.0008C101.649 53.0302 101.696 55.361 101.696 57.4776C101.696 60.0002 101.82 64.8711 98.9365 65.8322" stroke="black" stroke-width="3" stroke-linecap="round"/>
<path d="M103.42 90.3214C102.38 91.3621 101.124 94.8833 102.731 95.6868C104.364 96.5035 108.355 97.5314 109.552 95.4952C110.076 94.6046 112.31 91.8195 110.491 91.0113C109.424 90.537 104.364 88.0886 103.765 89.2867" stroke="black" stroke-width="3" stroke-linecap="round"/>
<path d="M92.6509 81.8076C91.8558 81.8076 91.374 82.115 91.4169 82.9294C91.4368 83.307 91.9797 83.3782 92.2583 83.3782C92.6393 83.3782 92.792 82.9063 93.0435 82.7051C93.4185 82.4051 93.2808 81.4377 92.8129 81.3527C92.1896 81.2393 91.4254 81.0873 91.1053 81.8076C90.6671 82.7935 93.3863 82.4865 93.7727 82.032C94.5341 81.1362 92.8288 80.525 92.1523 81.0785C91.7642 81.396 90.8466 83.6025 91.7597 83.6025C92.3348 83.6025 93.0235 83.7242 93.5234 83.3782C93.9281 83.098 93.5091 82.692 93.2118 82.5929" stroke="black" stroke-width="3" stroke-linecap="round"/>
<path d="M104.879 73.1698C103.829 73.1698 102.81 75.6442 104.043 75.8683C104.551 75.9606 105.76 76.2281 106.088 75.6377C106.339 75.1851 106.252 74.5334 106.05 74.0734C105.869 73.6594 105.093 73.0364 104.604 73.176C104.317 73.2582 104.318 74.1792 104.318 74.4038C104.318 75.6329 106.049 74.5322 104.991 74.1794" stroke="black" stroke-width="3" stroke-linecap="round"/>
<path d="M106.113 90.7821C105.059 89.8458 103 91.2888 104.143 92.4648C104.85 93.1917 106.373 93.4619 107.347 93.2252C107.818 93.1105 108.306 92.2963 107.957 91.8478C107.239 90.9244 103.835 91.7082 104.567 93.0257C105.03 93.8587 107.314 93.8005 108.082 93.811C108.546 93.8174 110.545 93.5048 109.472 92.6331C108.319 91.6966 106.581 91.2722 105.109 91.5175C104.213 91.667 102.362 92.1608 102.529 93.4121C102.668 94.4525 104.759 94.2597 105.433 94.2597C106.34 94.2597 107.804 94.1846 108.107 93.1628C108.263 92.6361 108.15 92.2714 107.633 92.1532C106.506 91.8957 105.402 92.9453 104.492 93.4184C104.422 93.4547 103.756 93.9127 104.006 93.9232C104.203 93.9314 104.401 93.9232 104.598 93.9232C104.987 93.9232 105.215 93.73 105.215 93.3623" stroke="black" stroke-width="3" stroke-linecap="round"/>
<path d="M16.9294 54.9262C12.0729 60.0384 9.71668 66.8777 7.86277 73.4988C7.54822 74.6222 8.56695 73.5269 8.96115 73.2192C10.9822 71.6418 13.0113 70.0742 15.0322 68.4962C17.3873 66.6573 19.6226 64.6191 21.7423 62.515C23.1247 61.1429 24.8387 59.7732 25.8762 58.1015C26.3019 57.4157 26.2683 56.951 25.3769 57.123C23.4511 57.4946 21.6357 58.9737 20.1546 60.1585C15.517 63.8686 11.7544 69.7048 11.6472 75.8154C11.5565 80.9839 20.1407 73.0835 20.9634 72.2607C25.7944 67.4297 30.9756 61.0524 32.4365 54.1973C32.611 53.3785 32.9775 51.5059 31.7675 51.3715C29.6046 51.1311 27.2086 52.8085 25.5067 53.8977C21.9552 56.1707 18.9969 59.0639 16.55 62.4951C15.2596 64.3044 14.1943 66.2345 13.2149 68.2266C12.4452 69.7921 11.1088 71.8075 11.0081 73.6187C10.9456 74.7443 11.3605 75.0875 12.436 74.4375C14.9265 72.9322 16.9729 70.4197 18.9664 68.3464C22.2956 64.884 25.5029 61.2909 28.5323 57.5623C30.8271 54.738 33.1015 51.711 34.6832 48.4158C35.1415 47.4612 36.1227 45.9026 34.4635 45.9395C31.5005 46.0053 28.4553 48.0585 26.026 49.5442C22.0292 51.9885 18.6929 55.2518 15.9708 59.0601C13.6334 62.3301 11.4672 66.2482 10.6586 70.2237C10.3154 71.9115 9.7806 74.8361 12.3761 74.6571C15.3088 74.4549 17.8015 72.2906 20.0748 70.643C26.433 66.0348 31.159 59.4994 35.1425 52.8293C35.1621 52.7966 36.4812 50.5299 36.0212 50.6525C35.4245 50.8117 34.7982 51.3749 34.3337 51.7409C32.8469 52.9123 31.4621 54.2458 30.05 55.5054C22.9911 61.802 16.8033 70.142 13.4545 79.0307C13.2427 79.5929 11.6322 83.4392 12.8155 83.8336C14.4558 84.3804 17.1287 81.7614 18.2275 80.9478C27.1286 74.3576 35.417 66.5072 42.1522 57.7021C44.0242 55.2548 46.1721 52.443 47.005 49.4144C47.362 48.1165 46.3521 48.5127 45.5272 48.9351C42.2197 50.6285 39.3571 53.3213 36.87 56.0346C33.4668 59.7471 30.3301 63.6623 27.6736 67.947C25.5476 71.376 23.2556 75.014 21.7423 78.7711C21.5447 79.2615 21.253 79.9199 21.1931 80.4586C21.1191 81.1248 22.0407 79.416 22.4013 78.8509C26.6728 72.159 30.4912 65.3649 34.0042 58.2413C34.9136 56.3974 36.5005 53.8861 36.5005 51.7409C36.5005 50.6531 32.4108 53.7064 32.2468 53.8478C28.2408 57.3027 25.3486 61.805 22.7708 66.3694C21.4 68.7966 20.0852 71.2572 18.7767 73.7185C17.7507 75.6483 16.6901 77.6154 16.1505 79.7496C14.4177 86.6041 24.1265 80.5812 26.1758 79.3302C30.4385 76.7281 34.4714 73.5783 38.1381 70.1937C41.3378 67.2402 44.7591 64.3445 47.4044 60.8575C47.6697 60.5078 49.9292 57.6422 48.5128 57.6422C46.0725 57.6422 43.2591 60.0958 41.4932 61.5365C38.2769 64.1603 35.6004 67.4944 33.2953 70.9226C31.4687 73.6391 29.3671 76.6507 28.8718 79.9693C28.7109 81.0474 28.5202 82.714 30.08 82.5655C32.3034 82.3537 34.6815 79.9652 36.2409 78.5714C42.1119 73.3236 47.2354 66.7531 51.0391 59.859C51.2045 59.5592 52.6272 56.9788 51.7181 56.7635C51.2092 56.643 50.5041 56.9822 50.0605 57.1629C48.3368 57.8652 46.7262 58.8558 45.1278 59.799C38.0931 63.9507 32.4834 69.6644 26.3255 74.9167C22.4419 78.2293 33.8629 68.0309 37.5889 64.542C42.5365 59.9094 47.5133 54.0595 54.1745 51.8907C55.8353 51.35 53.0374 52.9455 52.6168 53.0889C49.9608 53.9948 46.8595 54.3281 44.0694 54.377C40.9095 54.4325 37.6537 54.5684 34.5035 54.3071C33.3988 54.2155 32.3013 54.0283 31.2083 53.8478C31.1528 53.8386 30.0035 53.6868 30.1898 53.5682C30.5593 53.3331 31.0913 53.3419 31.5079 53.3086C32.6424 53.2179 33.7712 53.0699 34.9029 52.9491C38.2598 52.5908 41.6081 52.1197 44.9581 51.701C48.245 51.2901 51.6382 50.9869 54.9533 51.1917C56.7631 51.3036 59.2771 51.9543 60.575 53.3286C61.5362 54.3463 61.5422 55.847 61.9031 57.123C62.4514 59.0618 63.5651 60.6014 65.2981 61.6463C66.913 62.6201 69.2104 63.394 71.1295 63.1541C72.874 62.936 69.8942 60.5761 69.5218 60.3183C66.152 57.9854 62.0304 56.5751 58.1686 55.3256C53.4154 53.7878 48.4812 52.3924 43.5202 51.7309C42.6582 51.616 38.7406 50.7331 38.6773 52.4099C38.617 54.0077 40.333 54.7705 41.4932 55.4754C44.4492 57.2715 47.7197 58.5758 50.8993 59.9189C54.3929 61.3946 57.9323 62.7557 61.6035 63.7233C64.6656 64.5303 67.7758 65.3143 70.9497 65.4906C72.5466 65.5794 72.8995 64.5122 71.6687 63.4537C69.0232 61.1786 64.9494 60.0286 61.7433 58.8405C56.6652 56.9585 51.4563 55.4038 46.1962 54.1174C43.8776 53.5504 41.5518 52.9697 39.1866 52.6296C37.5199 52.39 35.3845 51.953 33.7047 52.35C31.729 52.817 34.0463 55.0146 34.6932 55.4754C37.7673 57.6652 41.4959 59.171 45.008 60.488C50.1568 62.4188 55.5239 63.9204 60.9245 64.9514C62.3402 65.2217 77.1426 67.9262 74.4645 62.9744C73.2978 60.8171 70.3246 59.2944 68.2837 58.1515C64.7324 56.1628 60.9437 54.5991 57.0902 53.3086C56.7938 53.2094 52.3071 51.5522 52.2074 52.2502C52.1619 52.5685 52.7569 53.0759 52.9263 53.2587C53.8386 54.243 54.9054 55.0564 55.9718 55.8648C61.4483 60.017 67.7295 63.1529 73.7256 66.4692C75.4826 67.4409 77.2384 68.4624 78.918 69.5646C80.0676 70.3191 79.2408 69.1346 78.898 68.5861C78.0636 67.2511 77.0366 66.0739 75.9823 64.9115C75.761 64.6675 73.7913 62.3527 74.6642 63.7332C75.9162 65.713 77.6886 67.4087 79.1876 69.1952C80.9875 71.3403 82.8446 73.4217 84.7693 75.4559C85.638 76.374 88.433 78.9279 87.4354 78.152C86.1144 77.1245 84.7656 76.1594 83.3914 75.1963C81.1576 73.6308 78.2813 71.5671 77.1406 68.9855C77.1044 68.9035 76.5186 67.8044 76.861 68.1467C77.1513 68.4371 77.4427 68.7429 77.6798 69.0853C78.4679 70.2237 79.0227 71.5466 80.0163 72.5403C81.0894 73.6133 83.8157 74.6037 84.1103 72.3206C84.3737 70.2796 81.6499 67.9379 79.8766 67.3679C78.8076 67.0243 80.1869 69.9058 80.3359 70.1638C80.757 70.8926 81.0644 71.8213 81.9934 71.8213" stroke="black" stroke-width="3" stroke-linecap="round"/>
<path d="M98.7088 34.077C97.7612 38.9202 97.1409 43.9683 96.9514 48.8951C96.8324 51.9871 96.8262 55.1276 96.9214 58.2214C96.9441 58.959 97.0159 59.7083 97.231 60.4181C97.2901 60.6133 97.6027 59.3084 97.6304 59.1899C98.2413 56.5715 98.5135 53.7398 98.8486 51.0719C99.3174 47.3383 99.6586 43.6185 100.326 39.9084C100.729 37.6718 101.253 35.4621 101.664 33.2282C101.812 32.426 101.764 32.8762 101.764 33.398C101.764 34.4764 101.764 35.5548 101.764 36.6332C101.764 42.6276 102.37 48.7213 101.854 54.7065C101.833 54.9524 101.606 57.7954 101.585 57.782C100.984 57.4065 101.405 53.9567 101.405 53.3485C101.405 49.0086 102.415 43.9756 101.045 39.7686C100.784 38.9655 100.503 38.0888 99.8271 39.1894C98.742 40.956 98.1447 43.4124 97.6304 45.4003C97.2765 46.7678 97.0461 48.4691 96.4621 49.7538C96.0239 50.7178 96.3649 47.6374 96.3722 46.5785C96.4136 40.6217 96.7317 34.6642 96.7317 28.7049C96.7317 26.478 96.8985 24.1974 96.3722 22.0148C96.1524 21.1032 95.6908 18.8204 94.7546 18.3002C93.0112 17.3317 91.6448 22.5915 91.4295 23.4526C91.1808 24.4475 91.1266 25.0056 92.0586 23.9719C93.3583 22.5304 94.9006 21.3604 96.3323 20.0576C97.7284 18.7871 99.1213 17.4952 100.217 15.9537C100.335 15.7868 100.965 15.1435 100.965 14.9252C100.965 14.5298 100.406 15.4844 100.127 15.764C95.8264 20.0643 92.9475 25.4984 90.8404 31.1613C90.5603 31.9139 89.17 35.0226 90.1015 35.7545C91.0724 36.5174 93.069 33.7502 93.5164 33.2282C97.8629 28.1573 100.922 22.2965 102.723 15.8838C103.256 13.9844 103.454 12.0597 103.701 10.1123C103.831 9.09543 103.163 9.49287 102.623 10.0324C101.063 11.5923 100.07 13.6218 99.1481 15.5942C97.5939 18.9195 96.5492 22.4241 95.7431 25.9989C95.3518 27.7342 95.0005 29.5556 94.9343 31.341C94.8956 32.3866 95.8052 29.4372 96.1925 28.4652C97.1646 26.0257 98.3181 23.6599 99.248 21.206C100.16 18.7998 101.064 16.3491 102.264 14.0665C102.606 13.4153 102.954 12.7549 103.342 12.1293C103.419 12.0044 103.966 11.0795 103.881 11.7799C103.764 12.7474 103.192 13.6889 102.803 14.5657C102.181 15.9668 101.508 17.3429 100.945 18.7695C98.2706 25.5501 95.9621 33.0564 96.1925 40.4276C96.2061 40.864 96.3775 40.7417 96.552 40.4276C97.0851 39.4679 97.3406 38.3334 97.7302 37.3122C99.0247 33.9198 100.371 30.5465 101.674 27.1572C102.928 23.8972 104.302 20.6834 105.499 17.4016C105.835 16.4805 106.131 15.5489 106.397 14.6057C106.466 14.3647 106.842 13.6111 106.767 13.3475C106.643 12.9138 103.895 15.7789 103.781 15.9237C101.533 18.7786 100.307 21.9038 99.248 25.3498C98.4817 27.8428 97.8101 30.2409 97.8101 32.8588C97.8101 34.3247 98.3317 33.7503 99.0882 32.8887C102.78 28.6837 105.813 23.9699 109.054 19.4186C109.634 18.6034 111.025 16.0591 110.901 17.0521C110.813 17.7556 110.311 18.5207 110.032 19.159C109.468 20.4506 108.849 21.7022 108.145 22.9234C106.711 25.4094 105.409 27.9634 103.961 30.4423C103.434 31.3448 103.058 32.3016 102.583 33.2282C102.491 33.4081 102.028 34.2899 102.164 33.5378C102.61 31.0605 104.862 28.1034 106.597 26.3683C107.069 25.8968 107.267 25.817 106.977 26.568C106.727 27.2135 106.509 27.8774 106.258 28.5052" stroke="black" stroke-width="3" stroke-linecap="round"/>
</svg>
