<svg width="61" height="52" viewBox="0 0 61 52" fill="none" xmlns="http://www.w3.org/2000/svg">
<path fill-rule="evenodd" clip-rule="evenodd" d="M29.5617 16.7495C29.6991 17.2346 29.5703 17.6406 29.5006 17.8198C29.4444 17.9644 29.36 18.1454 29.2558 18.3468C29.3015 18.6432 29.2589 18.9561 29.1146 19.2447C28.9092 19.6555 28.577 19.9467 28.3733 20.1043C28.2345 20.2117 28.0735 20.3193 27.8989 20.4139C27.7907 20.5412 27.678 20.6642 27.5624 20.7776C27.4064 20.9306 27.2092 21.102 26.9771 21.2433C26.7614 21.3747 26.3908 21.5571 25.919 21.5571C25.1568 21.5571 24.6486 21.0828 24.4154 20.6323C24.2292 20.2727 24.1954 19.9115 24.1859 19.7135C24.1652 19.281 24.2365 18.8072 24.3034 18.4539C24.3755 18.0731 24.468 17.7047 24.5415 17.4385C24.5784 17.3048 24.6129 17.188 24.6407 17.1002C24.6532 17.0606 24.6701 17.0088 24.6883 16.9595C24.6884 16.9592 24.6885 16.9588 24.6887 16.9582C24.693 16.9464 24.7212 16.8692 24.7646 16.7836C24.7776 16.7581 24.8086 16.6984 24.856 16.6275L24.856 16.6274C24.8584 16.6235 25.0285 16.3434 25.37 16.1519C25.5787 16.0349 26.0409 15.8507 26.5937 16.0423C26.6685 15.9945 26.7428 15.9528 26.8107 15.9175C26.9721 15.8336 27.1739 15.7463 27.387 15.6841C27.4934 15.6531 27.6362 15.6184 27.7987 15.6018C27.9372 15.5877 28.2242 15.5714 28.549 15.6831C28.94 15.8176 29.3927 16.1528 29.5617 16.7495Z" fill="black"/>
<path fill-rule="evenodd" clip-rule="evenodd" d="M37.4753 17.8166C36.856 17.2738 35.9137 17.3317 35.3657 17.9482C34.9253 18.4436 34.6558 19.0708 34.685 19.758C34.7135 20.4292 35.0201 20.9905 35.4166 21.3853C36.1847 22.15 37.4382 22.45 38.5792 21.9429C38.9629 21.7724 39.8497 21.3001 39.9268 20.2513C39.9639 19.7474 39.7799 19.3495 39.6141 19.1019C39.4521 18.8599 39.2596 18.6862 39.1184 18.574C38.8377 18.3509 38.5275 18.1917 38.3526 18.106C38.2803 18.0707 38.2076 18.0368 38.1639 18.0164C37.9544 17.8957 37.7178 17.8267 37.4753 17.8166Z" fill="black"/>
<path fill-rule="evenodd" clip-rule="evenodd" d="M33.3816 24.3901C33.9981 24.5782 34.691 24.9712 35.1098 25.725C35.608 26.6219 35.4996 27.6996 35.2889 28.4284C35.08 29.1507 34.5905 30.1499 33.635 30.6277C33.096 30.8972 32.5169 30.9241 32.0858 30.8934C31.625 30.8606 31.1574 30.7491 30.7329 30.5899C30.3116 30.4318 29.872 30.2038 29.4947 29.8974C29.2964 29.7364 29.0714 29.5174 28.8847 29.237C28.4803 29.0381 28.0376 28.6902 27.8174 28.0798C27.4635 27.0989 27.965 26.2265 28.3606 25.718C28.7657 25.1972 29.3438 24.8638 29.8395 24.6562C30.3644 24.4364 30.9561 24.2908 31.5413 24.2346C32.1191 24.179 32.7685 24.2031 33.3816 24.3901Z" fill="black"/>
<path fill-rule="evenodd" clip-rule="evenodd" d="M11.3069 23.8938C11.3826 24.145 11.4478 24.4053 11.4967 24.6085C11.6764 25.3556 11.8238 26.0724 11.9361 26.7879C12.0851 26.7315 12.2568 26.6941 12.4511 26.6921C12.9798 26.6866 13.3321 26.9501 13.4782 27.0824C13.561 27.1573 13.6284 27.2358 13.6822 27.3088C13.7737 27.229 13.8857 27.1506 14.0215 27.0854C14.4415 26.8836 14.8781 26.9063 15.2178 27.0363C15.5066 27.1468 15.689 27.3176 15.7708 27.402C15.863 27.4972 15.9255 27.5861 15.9608 27.6399C16.0306 27.7463 16.0771 27.844 16.0999 27.8938C16.161 28.0269 16.2355 28.2328 16.2865 28.3738C16.2987 28.4075 16.3096 28.4375 16.3186 28.4619C16.3874 28.6483 16.4556 28.821 16.5279 28.9694C17.2025 30.3542 17.7832 31.9207 18.3363 33.4128C18.367 33.4958 18.3977 33.5786 18.4283 33.6611C18.7644 33.9853 19.0825 34.333 19.3326 34.6157C19.4775 34.7795 19.6056 34.9284 19.7041 35.0429L19.7083 35.0477C19.7591 35.1067 19.7991 35.1532 19.8317 35.1905C19.8613 35.2245 19.8747 35.2393 19.8776 35.2425C19.8782 35.2431 19.8784 35.2433 19.8781 35.243C21.1263 36.5606 22.7717 38.4562 23.4122 40.6267C23.4822 40.8639 23.5428 41.1486 23.5792 41.4312C23.6129 41.6924 23.6414 42.0644 23.5834 42.4316C23.5551 42.6107 23.4892 42.905 23.3029 43.1985C23.0915 43.5316 22.701 43.8867 22.1187 43.9693C21.6048 44.0421 21.1927 43.8635 20.9634 43.7332C20.7209 43.5953 20.5173 43.4179 20.3538 43.2543C20.3164 43.2169 20.2793 43.1793 20.2424 43.1416C19.9419 43.4696 19.5146 43.6733 19.0367 43.6782C18.5719 43.683 18.2124 43.4981 18.0203 43.3805C17.6212 43.1363 17.2597 42.7517 16.9421 42.3589C16.8339 42.225 16.7254 42.0887 16.6168 41.9498C16.4601 42.2952 16.2541 42.6374 15.9801 42.9505C15.2633 43.7697 14.3564 44.0331 13.6146 44.1149C13.1411 44.1671 12.5586 44.15 12.1603 44.1383C12.0291 44.1345 11.9178 44.1312 11.8371 44.1312C11.8372 44.1312 11.8372 44.1312 11.837 44.1312C11.836 44.1312 11.8294 44.1313 11.8155 44.1318C11.7998 44.1323 11.7792 44.1332 11.7528 44.1345C11.6992 44.1373 11.6323 44.1414 11.5501 44.1469C11.4949 44.1505 11.4308 44.155 11.3611 44.1598C11.2362 44.1684 11.0933 44.1782 10.9513 44.1873C10.5012 44.2159 9.9312 44.2451 9.40831 44.2326C9.14748 44.2263 8.8651 44.2091 8.59702 44.1675C8.36432 44.1314 7.98555 44.0554 7.63467 43.8464C7.44638 43.7342 7.1904 43.5392 7.0008 43.217C6.79389 42.8655 6.72781 42.4658 6.78982 42.0845C6.89376 41.4455 7.32404 41.0288 7.5346 40.8416C8.1602 40.2855 8.88925 39.9114 9.53863 39.6334C9.59087 39.611 9.64383 39.5888 9.69731 39.5668C9.12171 38.6708 8.6743 37.7021 8.33095 36.6946C8.21963 36.6786 8.10833 36.6547 7.99753 36.6231C6.97306 36.3304 6.65101 35.4142 6.55268 34.9724C6.4431 34.4802 6.45512 33.9555 6.4856 33.5516C6.51791 33.1236 6.58264 32.7015 6.63865 32.372C6.66992 32.188 6.69395 32.0554 6.71195 31.956C6.73207 31.8449 6.74466 31.7755 6.7514 31.7224C6.88177 30.6957 6.85235 29.6843 6.81979 28.5653C6.80429 28.0322 6.78807 27.4748 6.78807 26.8796C6.78807 26.3063 7.10965 25.8081 7.58227 25.5556C7.6443 25.0367 7.71469 24.5324 7.79053 24.047C7.82399 23.8328 7.8681 23.6146 7.93252 23.4135C7.97861 23.2696 8.10537 22.8926 8.43433 22.585C8.62999 22.402 8.94313 22.2025 9.3663 22.1618C9.78827 22.1212 10.1307 22.2566 10.3526 22.3942C10.7264 22.626 10.9154 22.957 10.9743 23.0614C11.1327 23.3421 11.2408 23.674 11.3069 23.8938ZM11.0075 35.2131C11.3162 36.2606 11.7381 37.2191 12.2922 38.0536C12.2925 38.0353 12.2929 38.0169 12.2931 37.9984C12.3021 37.4202 12.2657 36.8339 12.218 36.4038C12.1501 35.7929 12.0144 35.1896 11.8574 34.491C11.8333 34.3839 11.8087 34.2746 11.7838 34.1627C11.7451 33.9887 11.7058 33.8092 11.6676 33.6248C11.6565 33.6626 11.6452 33.7003 11.6337 33.7379C11.4912 34.2031 11.2926 34.7328 11.0075 35.2131ZM8.99623 41.191C8.9964 41.1909 9.00035 41.1918 9.00759 41.1939C8.99968 41.1922 8.99607 41.1911 8.99623 41.191ZM9.49882 43.1125C9.49779 43.1126 9.50523 43.104 9.52425 43.0869C9.50937 43.1039 9.49986 43.1125 9.49882 43.1125ZM22.5146 41.17C22.5146 41.17 22.5141 41.1697 22.5133 41.169Z" fill="black"/>
<path fill-rule="evenodd" clip-rule="evenodd" d="M24.0524 3.59639C21.9097 3.38077 19.9103 3.49835 18.1069 4.24259C14.8733 5.57711 12.4381 7.73677 10.2412 10.6242C9.09466 12.131 8.27468 14.1508 7.4748 16.1619C6.40307 18.8565 5.54948 21.6381 4.69551 24.4846C3.49 28.503 3.49537 32.4736 3.50132 36.8756C3.50174 37.1864 3.50216 37.4993 3.50216 37.8145C3.50216 40.7826 4.78482 43.4942 6.95747 45.5116C7.94454 46.4282 9.66716 47.273 11.353 47.4332C11.7058 47.4667 12.0088 47.5008 12.2941 47.533C12.9063 47.602 13.4375 47.6618 14.205 47.6867C15.3039 47.7225 16.8561 47.6798 19.5753 47.4326C22.1578 47.1978 23.552 46.6226 24.2518 46.2027C24.6012 45.9931 24.7854 45.8177 24.865 45.7312C24.8825 45.7122 24.8954 45.6969 24.9043 45.686L24.9701 45.5543L25.1241 45.3928L25.1248 45.392L25.1261 45.3907L25.1395 45.3763L25.1689 45.3445L25.2013 45.3089C25.257 45.2474 25.3396 45.1543 25.4404 45.0354C25.6433 44.7961 25.9136 44.4597 26.1848 44.0709C26.7775 43.2211 27.1798 42.3922 27.2139 41.835C27.268 40.9487 26.8805 40.0608 26.175 39.1948C25.4735 38.3337 24.5665 37.6328 23.879 37.1745C23.1897 36.715 23.0035 35.7837 23.463 35.0944C23.9225 34.4051 24.8538 34.2189 25.5431 34.6784C26.3557 35.2201 27.5345 36.1137 28.5009 37.3C29.4633 38.4813 30.3258 40.0934 30.2083 42.0179C30.1198 43.4674 29.2722 44.8884 28.6455 45.787C28.307 46.2723 27.9752 46.6847 27.7285 46.9756C27.6046 47.1218 27.5005 47.2392 27.4257 47.3219L27.4089 47.3404L27.3953 47.3604C27.3173 47.4744 27.2121 47.6109 27.0728 47.7624C26.793 48.0665 26.3835 48.4223 25.7953 48.7752C24.6202 49.4803 22.7644 50.1551 19.8469 50.4203C17.066 50.6731 15.3785 50.7265 14.1076 50.6852C13.2167 50.6562 12.5108 50.577 11.8477 50.5026C11.5846 50.4731 11.3277 50.4443 11.0692 50.4197C8.71374 50.1959 6.37677 49.0663 4.91612 47.71C2.18464 45.1736 0.50216 41.6859 0.50216 37.8145C0.50216 37.4754 0.5015 37.1358 0.500839 36.7956C0.492449 32.4796 0.483903 28.083 1.82203 23.6226C2.67475 20.7802 3.56147 17.8836 4.68719 15.0532L4.70245 15.0148C5.46751 13.0912 6.42364 10.6871 7.85368 8.8076C10.2752 5.62498 13.1068 3.06069 16.9625 1.46947C19.3933 0.46625 21.9425 0.368924 24.3528 0.611464C26.3909 0.816555 28.433 1.27919 30.2749 1.69646C30.5924 1.76838 30.9045 1.83908 31.209 1.90675C32.1347 2.11246 33.0865 2.29942 34.0537 2.48941C37.1451 3.09667 40.3938 3.7348 43.4491 5.1146C45.3683 5.98135 47.2735 7.28247 48.792 8.73492C49.4689 9.38241 50.2232 9.956 51.0584 10.591L51.0822 10.6091C51.9029 11.2332 52.8036 11.9194 53.6245 12.7225C53.9176 13.0092 54.2217 13.2984 54.5315 13.593C55.5128 14.5263 56.5521 15.5147 57.4858 16.6559C58.7095 18.1516 59.2125 19.7717 59.6705 21.2469L59.6711 21.2488C59.7126 21.3825 59.7537 21.515 59.795 21.6462C60.8125 24.8782 60.4235 29.0383 58.9715 32.0229C58.0184 33.9819 56.7487 35.7369 55.505 37.3752C55.276 37.677 55.0485 37.9739 54.8236 38.2675L54.8213 38.2706C53.8001 39.6037 52.8305 40.8695 51.9952 42.212C51.3869 43.1896 50.623 44.4061 49.7341 45.5287C48.8543 46.6399 47.7728 47.7631 46.4854 48.4782C46.2432 48.6128 45.9902 48.7623 45.7253 48.9189C44.8612 49.4298 43.87 50.0157 42.7087 50.4028C42.4426 50.4915 42.155 50.5999 41.8227 50.7253L41.8152 50.7281C41.4951 50.8489 41.1379 50.9837 40.7739 51.1067C40.0596 51.348 39.1857 51.5922 38.2997 51.5922C37.5375 51.5922 36.8432 51.4841 36.268 51.3945L36.2328 51.389C35.623 51.294 35.14 51.2214 34.6328 51.2214C33.8044 51.2214 33.1328 50.5499 33.1328 49.7214C33.1328 49.2506 33.3498 48.8304 33.6892 48.5554C33.708 44.9552 35.6115 42.5782 37.3853 40.3632C37.5121 40.2048 37.6389 40.0465 37.7637 39.8894C38.4925 38.9716 39.504 38.6838 40.161 38.5332C40.3264 38.4953 40.4911 38.4619 40.6343 38.4329L40.6504 38.4297C40.8043 38.3985 40.9346 38.3719 41.0588 38.3431C41.3119 38.2845 41.4636 38.2327 41.5635 38.1827C42.3045 37.8123 43.2055 38.1126 43.576 38.8536C43.6309 38.9633 43.671 39.0766 43.6972 39.1912C44.0539 38.7563 44.403 38.3237 44.7431 37.8844C44.8449 37.753 45.0064 37.5089 45.255 37.1336L45.3693 36.961C45.6601 36.5223 46.0182 35.988 46.402 35.4736C46.7789 34.9683 47.2199 34.4284 47.6858 34.0013C48.0771 33.6425 48.8004 33.0609 49.7213 33.0609C50.5664 33.0609 51.0356 33.6495 51.2102 34.0354C51.3578 34.3615 51.3811 34.6793 51.3875 34.8435C51.4018 35.2113 51.3471 35.6143 51.2948 35.9212C51.1877 36.5495 51.0065 37.2333 50.9305 37.4507C50.5499 38.5381 49.9501 39.3646 49.2864 40.0476C49.2888 40.1307 49.2847 40.208 49.2769 40.2774C49.2331 40.669 49.0588 40.9561 48.9731 41.0849C48.7782 41.3781 48.5173 41.6161 48.3045 41.7794C48.0891 41.9446 47.7851 42.1392 47.4367 42.2554C47.0332 42.3899 46.6305 42.4775 46.2605 42.5424C45.731 43.064 45.238 43.6443 44.888 44.07C44.3087 44.7745 43.8563 45.4152 43.4909 46.146C43.3814 46.3652 43.2124 46.667 42.9429 46.9133C42.7898 47.0532 42.5933 47.1861 42.3491 47.2733C42.333 47.279 42.317 47.2845 42.3011 47.2896C42.2936 47.3114 42.2852 47.3359 42.2754 47.3639C42.8678 47.1172 43.377 46.8167 43.9905 46.4548C44.3015 46.2713 44.6394 46.0719 45.0285 45.8558C45.8123 45.4203 46.6027 44.6508 47.3822 43.6664C48.1526 42.6934 48.8354 41.6116 49.448 40.6271C50.368 39.1486 51.4452 37.7431 52.4702 36.4058C52.6884 36.1213 52.9042 35.8398 53.1155 35.5613C54.3466 33.9395 55.4595 32.3843 56.2738 30.7105C57.4079 28.3792 57.7088 25.0098 56.9335 22.547L56.835 22.2334C56.3431 20.664 56.004 19.5825 55.1639 18.5556C54.3594 17.5724 53.5094 16.7634 52.5644 15.8641C52.231 15.5468 51.8858 15.2183 51.5267 14.867C50.8595 14.2144 50.1059 13.6356 49.2663 12.9971L49.1867 12.9367C48.3921 12.3326 47.5198 11.6694 46.7183 10.9029C45.4371 9.67735 43.8136 8.57096 42.2143 7.84871C39.5043 6.62481 36.7309 6.07856 33.7249 5.4865C32.6987 5.28437 31.6454 5.0769 30.5582 4.83531C30.2315 4.7627 29.9051 4.68892 29.5791 4.61521C27.73 4.19714 25.8915 3.78145 24.0524 3.59639ZM38.2649 48.5921C38.2113 48.4368 38.1884 48.3017 38.1791 48.2175C38.1097 47.5933 38.3864 47.1176 38.531 46.9044C38.6652 46.7065 38.8206 46.539 38.9589 46.4074C38.9498 46.3516 38.9458 46.3085 38.944 46.2862C38.9302 46.1211 38.9466 45.9413 38.9506 45.8983L38.9511 45.8921C38.9588 45.8048 38.9702 45.7014 38.9843 45.6054C38.9911 45.5588 39.0011 45.497 39.0147 45.4322C39.0215 45.4003 39.0323 45.3524 39.0481 45.2973C39.0584 45.2616 39.0942 45.1374 39.169 44.9953C39.1823 44.97 39.1959 44.9448 39.2098 44.9198C39.4631 44.062 39.8433 43.1867 40.3687 42.406C40.6105 42.0468 40.8904 41.6974 41.2107 41.3771C41.0707 41.4055 40.9491 41.4303 40.8314 41.4573C40.2922 41.5809 40.1677 41.6861 40.113 41.755L39.8745 42.055C38.012 44.3963 36.7517 45.9805 36.6914 48.4242L36.6943 48.4247C37.2892 48.5173 37.7664 48.5889 38.2649 48.5921ZM38.989 45.813C38.9834 45.841 38.9839 45.8326 38.9913 45.8015L38.989 45.813ZM39.0455 46.878L39.0445 46.8789C39.0374 46.8849 39.0379 46.8839 39.0455 46.878Z" fill="black"/>
</svg>
