<svg width="76" height="34" viewBox="0 0 76 34" fill="none" xmlns="http://www.w3.org/2000/svg">
<path d="M6.52373 15.1072C5.50967 14.9976 4.24257 14.7405 3.30018 15.3059C2.47907 15.7986 2.04242 16.9299 1.88711 17.8229C1.73289 18.7097 1.58292 19.7113 2.01958 20.5387C2.54884 21.5415 3.64213 21.8707 4.66908 22.0989C6.23832 22.4477 7.87689 21.0348 8.10607 19.5451C8.26201 18.5315 8.37838 17.5942 8.37838 16.5644C8.37838 15.7118 8.41176 17.3037 8.45198 17.4991C8.81938 19.2836 9.43337 20.9914 9.76937 22.7834C10.0723 24.3988 9.99455 26.081 9.96809 27.7218C9.9527 28.6754 9.4007 29.7281 8.64333 30.3124C7.73179 31.0156 6.32921 31.5253 5.19898 31.6666C4.54309 31.7486 3.19492 32.2624 2.61572 31.7991C2.24545 31.5028 2.07588 30.5016 1.88711 30.0769C1.52279 29.2572 1.63792 28.5881 2.01958 27.8248" stroke="black" stroke-width="3" stroke-linecap="round"/>
<path d="M13.5449 15.3721C13.5449 16.9968 13.6774 21.8689 13.6774 20.2443C13.6774 19.24 13.6211 18.3141 13.9129 17.3593C14.47 15.5359 18.5196 15.813 19.3738 17.0943" stroke="black" stroke-width="3" stroke-linecap="round"/>
<path d="M25.6001 17.0943C23.5097 17.0943 24.1659 19.5151 25.0408 20.6711C25.8394 21.7265 27.0946 22.1284 28.3895 22.1284C29.4802 22.1284 31.549 22.2586 32.4152 21.3924C32.869 20.9387 32.872 19.9369 32.7243 19.3464C32.374 17.9449 30.8768 17.3122 29.7068 16.7705C28.7155 16.3115 27.6653 16.0586 26.601 15.8358C26.3104 15.775 25.3891 15.435 25.0997 15.6665C24.8773 15.8444 24.6728 16.4148 24.6728 16.6969" stroke="black" stroke-width="3" stroke-linecap="round"/>
<path d="M35.6682 17.4917C35.6682 19.075 36.2573 21.1424 37.5523 22.202C39.2748 23.6113 38.1407 21.3583 37.7878 20.6711C37.2885 19.6989 36.475 17.5517 37.9497 16.9618C40.2157 16.0554 42.6673 17.9966 44.0068 19.604C44.418 20.0974 44.8172 20.8818 44.9341 21.5249C45.0331 22.0691 44.9241 21.4335 45.0151 21.1348C45.5925 19.2374 47.4769 18.2058 49.372 18.2939C51.2677 18.3821 54.6121 19.942 54.6121 22.1946C54.6121 22.9818 54.3532 24.1557 55.407 23.4531" stroke="black" stroke-width="3" stroke-linecap="round"/>
<path d="M59.6462 19.3464C59.1574 20.6296 58.9833 21.4623 59.7051 22.6435C59.8271 22.8432 60.5163 23.4334 60.1761 22.9232" stroke="black" stroke-width="3" stroke-linecap="round"/>
<path d="M56.9967 14.1799C57.9602 14.1799 58.9982 14.4055 59.9112 14.7098" stroke="black" stroke-width="3" stroke-linecap="round"/>
<path d="M66.4025 13.65C65.6381 14.7466 64.2361 15.7087 63.9443 17.0649C63.7991 17.7398 63.866 18.5248 63.8854 19.2139C63.9229 20.5444 64.9343 21.5645 66.1375 21.9959C67.0761 22.3324 68.0441 22.5656 69.0225 22.7613C69.6579 22.8884 70.4344 23.2255 71.0391 22.9232" stroke="black" stroke-width="3" stroke-linecap="round"/>
<path d="M64.0179 17.2268C67.4392 17.2268 71.0925 17.5787 74.4834 17.0943" stroke="black" stroke-width="3" stroke-linecap="round"/>
<path d="M6.92114 10.868C6.45153 9.40043 7.76473 7.70287 8.83467 6.82747C10.3219 5.6106 12.0041 4.56535 13.9129 4.14117C19.1319 2.98139 24.3204 1.99213 29.6774 1.99213C33.0562 1.99213 36.5574 2.5007 39.9074 2.91945C42.5994 3.25595 45.2341 3.82425 47.8559 4.47971C49.5633 4.90656 51.4394 5.69539 52.8826 6.68763C53.6333 7.20371 54.4573 7.61111 55.2745 8.01974C55.7291 8.24704 56.2239 8.61588 56.7317 8.61588" stroke="black" stroke-width="3" stroke-linecap="round"/>
<path d="M55.1421 4.90662C55.7205 5.54287 56.5834 6.70309 56.7318 7.55612C56.823 8.08088 57.3037 8.31314 57.4972 8.74839C57.7039 9.21343 53.7826 9.15975 53.5229 9.17526C51.8464 9.27535 49.8296 9.1777 48.2534 9.80819" stroke="black" stroke-width="3" stroke-linecap="round"/>
</svg>
